<?xml version="1.0" encoding="UTF-8"?>
<svg id="svg2" xmlns="http://www.w3.org/2000/svg" version="1.1" xmlns:cc="http://creativecommons.org/ns#" xmlns:dc="http://purl.org/dc/elements/1.1/" xmlns:inkscape="http://www.inkscape.org/namespaces/inkscape" xmlns:rdf="http://www.w3.org/1999/02/22-rdf-syntax-ns#" xmlns:sodipodi="http://sodipodi.sourceforge.net/DTD/sodipodi-0.dtd" xmlns:svg="http://www.w3.org/2000/svg" viewBox="0 0 1473.6 305.3">
  <!-- Generator: Adobe Illustrator 29.7.1, SVG Export Plug-In . SVG Version: 2.1.1 Build 8)  -->
  <defs>
    <style>
      .st0 {
        fill: #0a0a0a;
      }
    </style>
  </defs>
  <sodipodi:namedview id="namedview4" bordercolor="#666666" borderopacity="1" gridtolerance="10" guidetolerance="10" inkscape:current-layer="g837" inkscape:cx="465.89902" inkscape:cy="-429.67226" inkscape:document-rotation="0" inkscape:pageopacity="0" inkscape:pageshadow="2" inkscape:window-height="1009" inkscape:window-maximized="1" inkscape:window-width="1920" inkscape:window-x="-8" inkscape:window-y="-8" inkscape:zoom="0.35932411" objecttolerance="10" pagecolor="#ffffff" showgrid="false"/>
  <g id="g10" inkscape:groupmode="layer" inkscape:label="Image">
    <g id="g837">
      <path id="path849" class="st0" d="M63.6,277.1c-.8-.3-2.1-.9-2.9-1.5-1.9-1.2-28.4-27.5-30.1-29.9-2.3-3.2-3.1-6-2.4-8.7.6-2.2,1.6-3.8,4-6,2.1-2,2.2-2,27.7-18.4,28.5-18.3,32.7-20.8,36.6-21.8,2.3-.6,5.1-.4,6.8.4,1.8.9,9.9,8.9,10.8,10.8.8,1.6,1,4.4.5,6.3-1,4.2-2.9,7.5-21.2,36-5.4,8.4-11,17.1-12.4,19.3-5.4,8.6-7.9,11.6-10.8,13.1-2,1-4.7,1.1-6.7.4ZM203,114.4c-1.9-.7-3.8-2.2-7.6-6.2-2.2-2.3-3.5-3.9-4-4.8-.8-1.7-1.1-4.2-.7-6.1.9-4.3,2.8-7.4,20.7-35.4,6-9.4,12.3-19.3,14-22,1.7-2.7,3.8-5.8,4.7-7,5.1-6.4,10.3-7,16.6-1.9,1.1.9,7.7,7.4,14.7,14.4,13,13.1,14.4,14.7,15.6,17.8.8,2.1.7,4.7-.3,6.6-1.6,3.2-4.5,5.7-12.6,10.9-2.6,1.7-11.5,7.3-19.7,12.6-22.2,14.3-28.9,18.4-32.3,19.9-3.4,1.6-6.6,1.9-9.1,1.1h0Z"/>
      <path id="path847" class="st0" d="M132.9,305c-5.7-.8-8.9-3.7-9.5-8.7-.4-2.9.1-6.5,2.5-17.3,1.2-5.6,3.2-14.6,4.4-20.1,7.7-35.5,8.7-39,12.3-42.3,2.3-2,3.2-2.3,10.4-2.3s6.5,0,7.4.4c1.8.5,3.7,2.1,5,3.9,2.5,3.7,3.4,7.4,11.1,42.8,1.8,8.5,3.9,17.7,4.5,20.5s1.4,6.1,1.6,7.3c.5,2.7.6,7.2.1,8.8-.7,2.6-2.4,4.6-5,5.8-2.9,1.3-4.1,1.4-24.5,1.4-10.4,0-19.6-.1-20.5-.3h0ZM97.6,114.8c-4.3-.8-7.9-2.9-35.7-20.9-7.4-4.8-16.2-10.4-19.6-12.5-9.5-5.9-12.1-8.1-13.7-11.3-1.5-3-1-6.5,1.3-9.9,1.1-1.6,27-27.7,29.2-29.4,4.8-3.6,8.9-3.9,12.9-.9,2.3,1.7,4.6,4.7,8.1,10.2,1.6,2.5,7.3,11.5,12.7,19.8,18.4,28.6,20.3,31.8,21.6,36.1.8,2.6.7,5.4-.3,7.4-1,2-9.2,10-11,10.8-1.3.6-4,.9-5.5.6Z"/>
      <path id="path843" class="st0" d="M235.3,276.5c-3.3-1.7-5.5-4.3-11-12.9-1.9-3.1-7.8-12.3-13.1-20.4-10.2-15.8-14.7-23-17.2-27.3-3.7-6.5-4.5-10.6-2.5-14.2,1.1-2.1,8.6-9.5,10.5-10.5,1.9-.9,4.8-1,7.4-.3,4.1,1.3,7.1,3.1,35.6,21.3,8.4,5.4,17.3,11.1,19.8,12.7s5.5,3.6,6.7,4.4c6.8,5,8,10.1,3.7,16.1-1.5,2.1-28.1,28.6-29.9,29.8-3.5,2.3-7,2.8-9.9,1.3h0ZM7.2,182.3c-4-1.1-6.2-4.1-6.9-9.6-.2-1.4-.3-8.7-.2-21.3.1-21.2,0-20.5,1.9-24,1.4-2.6,3.5-4,7-4.5,2.5-.4,5.8,0,11.3,1.2,2.3.5,12.7,2.8,23.2,5.1,21.6,4.7,32,7.1,35.4,8,6.6,1.9,9.8,3.9,11.4,7.3.5,1.1.6,1.7.6,8.1v6.9l-.7,1.5c-1.4,2.8-4.5,5-9.3,6.5-4.3,1.3-12.3,3.1-36.8,8.4-7.6,1.6-16.8,3.7-20.5,4.5s-7.7,1.7-8.7,1.8c-2.5.4-6,.3-7.6,0ZM145.6,90.6c-3.8-1.4-5.8-4-7.7-9.9-1.1-3.4-3.7-14.9-7.9-34.3-1.9-8.6-4.1-19-5.1-23.1-1.9-8.2-2.4-11.6-2.1-14.1.5-4.6,2.8-7.3,7.6-8.6,1.6-.5,3.2-.5,22-.5s21.9,0,25.1,1.5c2,1,3.9,2.9,4.5,4.8.4,1.1.5,2.2.5,5.1,0,3.3-.1,4.2-1,8-.5,2.3-2.8,12.8-5.1,23.2-7.8,35.9-8.5,38.4-10.5,42.4-1.2,2.2-2.9,4.1-4.7,5-1.3.6-1.5.7-8,.7-5,0-6.9,0-7.6-.3h0Z"/>
      <path id="path839" class="st0" d="M451.1,290.2c-15.1-.7-28-3.8-38.8-9.2-10.2-5.1-17.6-11.7-24-21.3-8.7-13-12.7-27.9-13.9-52.2-.4-7.3-.4-102.6,0-109.7,1-20,3.6-32.9,9-44.1,11.6-24.2,33.1-36.8,65.9-38.8,22.4-1.4,43.1,3.4,57.6,13.1,5,3.4,10.7,8.6,14.6,13.4,6.7,8.3,11,17.7,13.4,29.8,1.7,8.4,2.1,14.2,2.3,28.6v11.9c.1,0-23.2,0-23.2,0h-23.3l-.2-8.1c-.2-11.6-1.1-18.3-3.4-25-1.8-5.5-4-9.3-7.4-12.8-5.8-6-12.8-8.6-23.5-8.5-11.2,0-18.3,2.5-23.7,8.2-7.2,7.6-10.5,19.9-11.5,42.8-.4,9.2-.2,91.9.2,97.2,1.2,14.6,3.4,23.1,7.8,29.5,4,5.9,10.9,10.2,19.2,12.1,2.6.6,11.1.8,14.1.4,12.6-1.8,20.6-8.9,24.8-22.1,2.1-6.6,3-13.5,3.3-24.7l.2-7.4h46.6v8.3c0,11.9-.6,20.3-2,28.7-2.2,12.9-6.6,23.7-13.1,31.9-13,16.3-31.2,25.5-55,27.6-3.5.3-12.9.5-16.1.4h0ZM654,290.1c-24.6-1.5-43.2-9.9-56.1-25.3-10.5-12.6-15.7-26.4-17.8-47.6-.8-7.7-1-12.1-1.1-24l-.2-12,57.6-31.3c31.7-17.2,57.8-31.4,58.1-31.6.4-.3.4-.9.1-8-.6-14.1-1.3-20.6-3-27.5-3.8-15.5-11.5-23.2-25.3-25.1-3.5-.5-11.1-.4-14.3.1-8.7,1.5-15.3,5.7-19.7,12.3-3.6,5.4-5.5,11-6.4,18.4-.4,3.2-.9,15.4-.9,21v2.3h-46.7l.2-6.5c.9-33.4,2.9-43.7,11-57.2,2.8-4.6,5.7-8.4,9.7-12.4,6.5-6.5,13.5-11,22.6-14.6,22.1-8.8,55.5-8.4,77.2.8,11.5,4.9,21.1,12.5,27.3,21.7,9.2,13.6,13.7,29.9,15,54.4.4,7.8.2,114.5-.2,119.5-2.1,23.1-5.7,34.3-14.6,45.4-10.9,13.5-27.2,22.6-46.9,25.9-7.5,1.3-18.1,1.8-25.6,1.4h0ZM668.7,248.8c15.1-2.5,22.9-12.5,25.6-32.5.4-2.8.5-6.9.6-25.9,0-12.4,0-22.6-.1-22.6-.1,0-15.6,8.4-34.5,18.7l-34.3,18.7v1.6c-.2,2,.3,8.4.8,11.9,1.3,8.7,3.9,15.5,7.7,20.4,5.8,7.3,15.1,10.8,27.7,10.3,1.9,0,4.8-.4,6.5-.6h0ZM1182.7,290.1c-28.9-1.7-49.5-12.1-61.3-30.8-7.7-12.3-11.5-25.9-13.5-48.7-.4-5.1-.6-104.9-.2-114.8,1.1-26.2,4.7-40.1,13.7-52.1,3.6-4.8,10.1-11,15.4-14.7,14.6-10.2,35.5-15.4,57.3-14.1,8.5.5,14.1,1.3,21,3.1,17.8,4.6,31.2,14,40.9,28.6,8.1,12.2,11.8,25.1,13.6,47.5.2,2,.4,9.5.4,16.7v13.1c.1,0-57.5,31.3-57.5,31.3-31.7,17.2-57.8,31.4-58,31.6-.3.2-.3,1.2-.1,6.5.7,16.3,1.4,22.5,3.3,30,3.8,14.6,11.3,22,24.5,23.9,3.6.5,11.2.5,14.5,0,8.5-1.4,15-5.2,19.6-11.6,2.3-3.1,4.6-8.3,5.7-12.7,1.3-5,2-13.8,2-24.5v-5.1h46.8l-.2,8.2c-.6,26.3-2.5,39-7.5,49.2-6.7,13.8-16.9,24.2-30.2,30.7-8.9,4.4-19.3,7.2-30.9,8.3-5.2.5-14.5.7-19.3.4h0ZM1189.2,118.3l34.2-18.7v-2.8c-1.1-23-7.7-35.2-21.8-39.6-3.8-1.2-6.9-1.6-12.7-1.6-3.7,0-6.1.1-7.9.4-15.4,2.6-23.4,12.2-26,31.4-.7,5.5-.9,11.8-.9,31,0,17.9,0,18.9.5,18.7.3,0,15.8-8.6,34.6-18.9h0ZM1388,290.2c-26.1-1.2-47.1-10.3-59.8-26.1-2.8-3.5-4.8-6.7-7-11.2-4.7-9.6-7.1-20.1-8.4-37.5-.3-3.4-.3-17.5-.3-62.9s0-59.5.3-62.9c1.9-24.3,6.3-37.7,16.2-49.7,10.5-12.6,27.3-21.2,47.3-24.1,6-.9,9.1-1.1,16.8-1.1,10.1,0,16.9.8,25.2,2.8,14.6,3.5,26.6,10.1,35.7,19.5,12.1,12.5,17,26.4,18.9,53.2.5,7.3.5,117.6,0,124.4-2,27.1-6.6,40.4-18.4,52.8-15,15.7-39.1,24-66.5,22.8h0ZM1399.4,247.3c15.3-2.5,23.7-13.5,26.3-34.6.9-7.2,1-13.8.9-64.5-.1-50.7-.1-51.1-1.1-58.3-2.6-18.6-10.3-29-23.6-31.9-6.7-1.5-15.2-1.2-21,.7-2.5.8-5.9,2.6-8,4.2-6.8,5.2-11.3,15-13,28.4-.9,7.2-1,11.9-.9,64.4.1,55.2,0,53.5,1.4,61.3,3,17.8,11.4,27.9,25,30.2,3.1.5,10.9.5,14,0h0ZM784.3,191.5c0-101.2,0-96,1.5-107.8,2.1-16.4,6.2-28.7,13.2-39.3,10.9-16.6,29.2-26.3,55-29.1,5.8-.6,18.1-.6,23.9,0,19,2.1,33.2,7.5,44.3,17l2.5,2.1,1-.8c8-6.7,14.5-10.5,23.7-13.7,20-6.9,48.2-6.9,68.5.2,15.6,5.4,26.6,14.1,34.2,27.1,6.8,11.4,10.5,24.7,12.1,42.9.9,10.1.9,17.5.9,106.1v88.6h-46.6v-87.3c-.2-86.8-.2-88.9-1.1-99.9-1.4-18.1-6.1-29.5-14.3-35.2-5.2-3.6-11.4-5.2-20.1-5.1-20.1,0-29.7,9.8-33,33.5-.6,4.1-1,8.9-1.4,17.1-.2,3.2-.3,39.7-.3,91.1v85.8h-47.2v-88.7c-.2-64.5-.3-89.9-.5-92.9-.6-8-.9-10.8-1.5-14.6-2.9-17.2-9.1-26.2-20.5-29.8-4.3-1.4-10.9-2-16.3-1.5-8.4.7-14,2.9-18.5,7.1-6.6,6.2-10.4,16.9-11.7,32.6-.9,10.7-.9,12.4-1,99.9v87.8h-46.8v-93.3Z"/>
    </g>
  </g>
</svg>