<?xml version="1.0" encoding="UTF-8"?>
<svg id="Layer_1" xmlns="http://www.w3.org/2000/svg" version="1.1" viewBox="0 0 357 150.6">
  <!-- Generator: Adobe Illustrator 29.7.1, SVG Export Plug-In . SVG Version: 2.1.1 Build 8)  -->
  <defs>
    <style>
      .st0 {
        fill: #0a0a0a;
      }
    </style>
  </defs>
  <rect class="st0" y="2.1" width="28.1" height="28.1"/>
  <path class="st0" d="M27.4,148.5V47.3H.8v101.2h26.6ZM204.2,149.5v-24.8c-3.9,0-7.2-.2-9.6-.6-2.8-.4-4.9-1.4-6.3-2.8-1.4-1.4-2.3-3.4-2.8-6-.4-2.5-.6-5.8-.6-9.8v-35.4h19.3v-22.8h-19.3V7.8h-26.7v97.9c0,8.3.7,15.3,2.1,20.9,1.4,5.5,3.8,10,7.1,13.4s7.7,5.8,13,7.3c5.4,1.5,12.2,2.2,20.3,2.2h3.5ZM357,148.5V0h-26.7v148.5h26.7ZM132.5,57.2c-7.4-8-17.8-12-31-12s-12.2,1.3-17.5,3.9c-5.2,2.6-9.7,6.2-13.2,10.8l-1.5,1.9v-14.5h-26.3v101.2h26.5v-53.9,3.7-1.8c.3-9.5,2.6-16.5,7-21,4.7-4.8,10.4-7.2,16.9-7.2s13.6,2.4,17.5,7c3.8,4.6,5.8,11.1,5.8,19.4h0v.2h0v53.5h26.9v-57.4c0-14.4-3.7-25.8-11.1-33.8ZM316.5,97.7c0-7.3-1.3-14.1-3.8-20.5-2.6-6.3-6.2-11.9-10.7-16.7-4.6-4.8-10.1-8.5-16.5-11.2s-13.5-4-21.2-4-14.2,1.4-20.6,4.1c-6.4,2.8-12,6.5-16.7,11.2s-8.5,10.3-11.2,16.7c-2.8,6.4-4.1,13.3-4.1,20.6s1.3,14.2,3.9,20.6c2.6,6.4,6.3,12,10.9,16.7,4.6,4.7,10.3,8.5,16.9,11.2,6.6,2.8,13.9,4.2,21.7,4.2,22.6,0,36.6-10.3,45-19.9l-19.2-14.6c-4,4.8-13.6,11.3-25.6,11.3s-13.7-1.7-18.4-5.2c-4.7-3.4-7.9-8.2-9.6-14.1l-.3-.9h79.5v-9.5h0ZM237.2,88.4c0-7.4,8.5-20.3,26.8-20.4,18.3,0,26.9,12.9,26.9,20.3h-53.7Z"/>
</svg>