<?xml version="1.0" encoding="utf-8"?>
<!-- Generator: Adobe Illustrator 29.7.1, SVG Export Plug-In . SVG Version: 9.03 Build 0)  -->
<svg version="1.0" id="Layer_1" xmlns:x="http://ns.adobe.com/Extensibility/1.0/"
	 xmlns="http://www.w3.org/2000/svg" xmlns:xlink="http://www.w3.org/1999/xlink" x="0px" y="0px" viewBox="0 0 300 110"
	 style="enable-background:new 0 0 300 110;" xml:space="preserve">
<style type="text/css">
	.st0{fill:#0A0A0A;}
</style>
<path class="st0" d="M260.7,90.8c0-0.1,0-0.2,0-0.3v-0.2c0-0.2-0.1-0.4-0.2-0.5c-0.1-0.2-0.3-0.3-0.6-0.3c0.2,0,0.4-0.1,0.5-0.2
	c0.2-0.1,0.4-0.4,0.4-0.7c0-0.4-0.2-0.7-0.6-0.9c-0.2-0.1-0.5-0.1-1-0.1v0H258l0,3.5h0.6v-1.4h0.5c0.3,0,0.6,0,0.7,0.1
	c0.2,0.1,0.3,0.4,0.3,0.8v0.3l0,0.1c0,0,0,0,0,0c0,0,0,0,0,0h0.6l0,0C260.8,90.9,260.7,90.8,260.7,90.8z M259.8,89.1
	c-0.1,0.1-0.3,0.1-0.6,0.1h-0.6v-1.3h0.5c0.3,0,0.6,0,0.8,0.1c0.2,0.1,0.2,0.3,0.2,0.5C260.2,88.8,260,89,259.8,89.1z M260.7,90.8
	c0-0.1,0-0.2,0-0.3v-0.2c0-0.2-0.1-0.4-0.2-0.5c-0.1-0.2-0.3-0.3-0.6-0.3c0.2,0,0.4-0.1,0.5-0.2c0.2-0.1,0.4-0.4,0.4-0.7
	c0-0.4-0.2-0.7-0.6-0.9c-0.2-0.1-0.5-0.1-1-0.1v0H258l0,3.5h0.6v-1.4h0.5c0.3,0,0.6,0,0.7,0.1c0.2,0.1,0.3,0.4,0.3,0.8v0.3l0,0.1
	c0,0,0,0,0,0c0,0,0,0,0,0h0.6l0,0C260.8,90.9,260.7,90.8,260.7,90.8z M259.8,89.1c-0.1,0.1-0.3,0.1-0.6,0.1h-0.6v-1.3h0.5
	c0.3,0,0.6,0,0.8,0.1c0.2,0.1,0.2,0.3,0.2,0.5C260.2,88.8,260,89,259.8,89.1z M287.3,7.7c-45.4,5.4-74,8.5-137,15.9
	C87.4,16.2,58,13,12.6,7.7c-1.5,0-2.9-0.2-2.7,2.3c9.8,33.5,11.2,39,23.9,82.4c2.7,7.8,7.2,9.9,11.5,9.9H150c40.8,0,62.1,0,104.6,0
	c4.3,0,8.8-2.1,11.5-9.9c12.7-43.4,14.1-48.9,23.9-82.4C290.2,7.4,288.8,7.7,287.3,7.7z M51.4,96.5h-4V85.6h4c3,0,5.5,2.4,5.5,5.4
	S54.4,96.5,51.4,96.5z M77.1,96.9c-3.5,0-6-2.5-6-6c0-3.3,2.9-5.6,6-5.6s6,2.3,6,5.6C83.1,94.4,80.6,96.9,77.1,96.9z M107.5,91.6
	c0,1.4-0.1,2.8-1.1,3.8c-0.9,0.9-2.3,1.2-3.6,1.2s-2.7-0.3-3.6-1.2C98,94.4,98,93,98,91.6v-6.1h2.8v5.7c0,1.4,0.1,3,1.9,3
	c1.8,0,1.9-1.5,1.9-3v-5.7h2.8V91.6z M132.5,94.7c-1.1,1.5-2.7,2.1-4.5,2.1c-3.4,0-5.8-2.3-5.8-5.7c0-3.5,2.4-5.9,5.9-5.9
	c2.2,0,4,1,4.9,3l-2.7,1.1c-0.4-1-1.2-1.7-2.3-1.7c-1.9,0-2.8,1.8-2.8,3.4c0,1.7,1,3.4,2.9,3.4c1.2,0,2.2-0.6,2.3-1.9h-2v-2.2h5.4
	C133.6,92,133.5,93.4,132.5,94.7z M158.2,96.5h-2.8v-4.5h-4.1v4.5h-2.8V85.6h2.8v4.2h4.1v-4.2h2.8V96.5z M184.4,96.5h-2.8l-5.2-6.7
	h0v6.7h-2.8V85.6h2.8l5.2,6.6h0v-6.6h2.8V96.5z M209.2,91.8c0,1.4-0.1,2.8-1.1,3.8c-0.9,0.9-2.3,1.2-3.6,1.2c-1.3,0-2.7-0.3-3.6-1.2
	c-1.1-1.1-1.1-2.4-1.1-3.8v-6.1h2.8v5.7c0,1.4,0.1,3,1.9,3s1.9-1.5,1.9-3v-5.7h2.8V91.8z M232,88h-3.2v8.5H226V88h-3.2v-2.4h9.3V88z
	 M252.2,95.8c-0.8,0.7-2,1-3.1,1c-1.4,0-2.7-0.5-3.8-1.2l1.2-2.3c0.7,0.6,1.5,1.1,2.5,1.1c0.7,0,1.4-0.3,1.4-1.1
	c0-0.8-1.1-1.1-1.7-1.2c-1.8-0.5-2.9-1-2.9-3.1c0-2.2,1.6-3.7,3.8-3.7c1.1,0,2.4,0.4,3.4,0.9l-1.1,2.2c-0.5-0.4-1.2-0.7-1.9-0.7
	c-0.5,0-1.2,0.3-1.2,0.9c0,0.6,0.8,0.9,1.2,1l0.7,0.2c1.5,0.5,2.7,1.2,2.7,3C253.3,93.9,253,95,252.2,95.8z M261.6,91.5
	c-0.6,0.6-1.4,0.9-2.3,0.9c-0.9,0-1.6-0.3-2.3-0.9c-0.6-0.6-0.9-1.4-0.9-2.3s0.3-1.6,0.9-2.3c0.6-0.6,1.4-0.9,2.2-0.9
	c0.9,0,1.6,0.3,2.3,0.9c0.6,0.6,0.9,1.4,0.9,2.3C262.5,90.1,262.2,90.9,261.6,91.5z M283.4,14.3c-5.6,19.8-7.4,26-17.5,61
	c-2,6.4-4.9,5.6-9.4,5.6c-38.2,0-65,0-106.5,0c-41.5,0-68.2,0-106.5,0c-4.5,0-7.4,0.8-9.4-5.6c-10.2-35.1-11.9-41.2-17.5-61
	c-0.7-2.4,0.6-1.6,2.1-1.4c40.7,4.7,74.5,9,131.3,15.4c56.8-6.4,90.6-10.7,131.3-15.4C282.8,12.8,284.1,12,283.4,14.3z M260.7,90.8
	c0-0.1,0-0.2,0-0.3v-0.2c0-0.2-0.1-0.4-0.2-0.5c-0.1-0.2-0.3-0.3-0.6-0.3c0.2,0,0.4-0.1,0.5-0.2c0.2-0.1,0.4-0.4,0.4-0.7
	c0-0.4-0.2-0.7-0.6-0.9c-0.2-0.1-0.5-0.1-1-0.1v0H258l0,3.5h0.6v-1.4h0.5c0.3,0,0.6,0,0.7,0.1c0.2,0.1,0.3,0.4,0.3,0.8v0.3l0,0.1
	c0,0,0,0,0,0c0,0,0,0,0,0h0.6l0,0C260.8,90.9,260.7,90.8,260.7,90.8z M259.8,89.1c-0.1,0.1-0.3,0.1-0.6,0.1h-0.6v-1.3h0.5
	c0.3,0,0.6,0,0.8,0.1c0.2,0.1,0.2,0.3,0.2,0.5C260.2,88.8,260,89,259.8,89.1z M54,91.1c0,2.1-1.5,3-3.1,3h-0.6V88h0.7
	C52.7,88,54,89.1,54,91.1z M80.2,90.9c0,1.9-1.4,3.2-3.1,3.2c-1.7,0-3.1-1.4-3.1-3.2c0-1.5,1.4-2.9,3.1-2.9
	C78.8,88,80.2,89.4,80.2,90.9z M152.9,31c-0.6,0.6-2.2,2.1-5.6,2.1c-1.1,0-27.5,0-49.1,0c0.8,0.9,1.2,2.1,1.2,3.4
	c0,1.3-0.5,2.5-1.3,3.5h47.3c5.1,0,8.8-8.6,8.8-8.9C154.2,30.5,153.5,30.5,152.9,31z M141.2,67.8c0.8-1.6,8-19.7,8-19.7l-6.3,0
	c0,0-2.3,5.8-4,10.6c-2,5.6-7,9.8-5.3,4.8c1.9-5.2,6.2-15.6,6.2-15.6l-6,0c0,0-1.6,4-3.6,9.2c-0.9,2.2-5.2,8.8-10.2,10.4
	c1.6-1.2,3.3-3.2,4.7-6.2c6.2-12.6,0.7-13.1-1-13.5c-1.6-0.4-3.7,0.3-5.5,1.6c0.3-0.9,0.6-1.4,0.6-1.4h-5.9l-7.2,18.4
	c-1.5,1.1-3.2,2-5.3,2.4c0.6-0.4,1.3-0.9,2-1.4c3.6-2.9,2.2-9.2,1.4-11.8c-0.5-1.6-1.7-6.7-1.1-7.7c0.5-0.8-0.1-1.2-0.1-1.2
	s-7.6,10.7-10,14.2c-0.5,0.1-2,0.8-2.2,2.8c-2.2,2.4-5.2,4.6-3.7,0.8c4.3-10.9,6.5-16.5,6.5-16.5h-6c0,0-2.8,6.8-6,15.5
	c-0.5,1-1.4,2.1-2.8,2.5c-3,0.8-0.5-6.2,1.9-11.8c2.4-5.9-0.1-4.4-4.7-5.9c-2.3-0.7-1.4-3.4-4.1-3.4c-2.7,0-2.2,1.8-2.2,3.3
	c0,1.2,1.8,2,1.5,2.7C65,68.4,55,75.2,61.7,60.6c7-15.2,2.9-14.3-1.5-13.8c0,0-2.9,1-0.7-1.7c2.6-3.1,6-5,7.6-5c0.7,0,10.3,0,22.7,0
	c-0.8-0.9-1.3-2.2-1.3-3.5c0-1.3,0.5-2.5,1.2-3.4H69.9c-3,0-7.3,4.4-8.3,5.7c-1,1.3-5.7,6.7-6.4,7.5c-0.7,0.8-3,4-1.9,0.7
	c0.4-1,2.9-7.5,4.3-11.1c0.3-0.5,0.4-2.6-1.2-3.6c-0.9-0.6-3.7-0.7-11.3-0.1c-1.5,0.1-2.3,1.9-0.2,1.8c2.5-0.1,5.6,0,3.6,5.4
	c-6.3,16.6-12.9,33.2-12.9,33.2l7.9-0.2c0,0,4.1-10.6,6.1-15.7c1.6-3.9,6.7-7.6,7.6-5.9c1.2,2.3-1.2,5.4-3.4,11.6
	c-1.4,3.9-4.7,10.6,3.8,9.8C66.7,71.4,71.8,52,72.5,52c4.2,0.1,1.9,2.5-0.1,8.5c-0.8,2.3-1.9,9.1,2.7,9.3c1.9,0.1,4-1.4,5.8-3.4
	c0.7,3.6,5.6,5.7,10-0.2c0.7,1.9,3.1,4.6,7.1,3.5c2,0.1,4.5-0.2,7.1-1.7l-3.1,7.8h6c0,0,2-5,3.5-8.9c1,1.4,2.8,2.4,5,2.1
	c2.9,0.2,7.5-0.5,11.4-5.2c-1.1,4.5,3.4,6.9,8.1,3l-0.8,2.2c-9.1,2.7-12.2,10-6.8,10.8c4.2,0.6,9.4-4.4,11.8-10.2
	c4.3-1.3,4.9,3.3,6,0.2C146.4,68.9,143.5,67.1,141.2,67.8z M99.3,65.4c-1.8,4.1-5.8,2.1-4.8,1.3c2.1-0.5,3.3-4.7,0.3-6
	c1.8-2.3,3-3.9,3.8-4.5C98.8,57.2,101.1,61.2,99.3,65.4z M114.6,65.6c-0.9-0.2-2.1-1.3-1.3-3.5c0,0,3.1-7.8,3.5-8.6
	c1-2,7.2-3.2,3.8,5.5C118.5,64.6,116.6,66.1,114.6,65.6z M129.7,76.1c-1.6,1-2.4-0.4-0.7-2c1.3-1.2,3.8-2.6,5.2-2.9
	C133,73.4,131.7,74.8,129.7,76.1z M93.9,33.3c-1.8,0-3.2,1.5-3.2,3.2c0,1.8,1.5,3.2,3.2,3.2c1.8,0,3.2-1.5,3.2-3.2
	C97.2,34.7,95.7,33.3,93.9,33.3z M180.6,40c1.9,0,72.7,0,78.3,0c5.1,0,8.8-8.6,8.8-8.9c0-0.7-0.7-0.7-1.3-0.1
	c-0.6,0.6-2.2,2.1-5.6,2.1c-1.9,0-74.8,0-77.4,0c-2.9,0-7.3,4.4-8.3,5.7c-1,1.3-5.7,6.7-6.4,7.5c-0.7,0.8-3,4-1.9,0.7
	c0.4-1,2.9-7.5,4.3-11.1c0.3-0.5,0.4-2.6-1.2-3.6c-0.9-0.6-3.7-0.7-11.3-0.1c-1.5,0.1-2.3,1.9-0.2,1.8c2.5-0.1,5.6,0,3.6,5.4
	C155.6,56.1,149,72.6,149,72.6l7.9-0.2c0,0,4.1-10.6,6.1-15.7c1.6-3.9,6.7-7.6,7.6-5.9c1.2,2.3-1.2,5.4-3.4,11.6
	c-1.4,3.9-4.7,10.6,3.8,9.8C180.2,71.4,185.2,52,186,52c4.2,0.1,1.9,2.5-0.1,8.5c-0.8,2.3-1.9,9.1,2.7,9.3c2.4,0.1,5.2-2.4,7.5-5.2
	c1.2,4,5,8.1,13,2.4c0.8-0.6,1.5-1.2,2.2-1.9l-2,4.9h6.2l5.3-13.2c0.1-0.1,0.1-0.2,0.2-0.3c2.2-3.7,6.2-5.7,4.8-1.9
	c-1.9,5.2-5.3,12.7-5.8,15.2c4.1,0,6,0.2,6,0.2s3.6-9.5,5.1-13.7c2.2-3.6,6-5.5,4.7-1.8c-1.9,5.2-2.7,6.3-3.2,8.8
	c-0.5,2.5,0,7.1,4.6,6.7c3.8-0.3,5.9-3.2,7.4-6.1c2.1,7.4,10.8,8.4,16.7,0.4c1.4-1.8,1.5-4.4-1.4-0.8c-1.1,1.4-8.9,6.5-10.5-1.3
	c-0.2-0.9-0.2-0.9,0-0.8c5.9-0.2,10.9-3.2,10.9-7.7c0-3.7-3-7.5-9.9-4.5c-2.9,1.3-6.5,6.3-6.2,12.1l0,0.2c-1,2.7-3.2,5.5-4.8,5.5
	c-1.9,0-0.9-2.9-0.9-2.9s3.1-8.7,3.4-9.7c2.1-6.4-4.1-9.1-9.5-2l-0.2,0.2c0.4-4.8-4.7-6.4-9.4-0.8l1.6-3.9l-6.4,0l-5.1,12.9
	c-4,4.4-11.4,7.9-12.3,1.4c-0.1-0.9-0.1-0.9,0-0.8c5.8-0.2,10.8-3.2,11.1-7.8c0.2-3.7-2.5-7.6-9.4-4.5c-2.9,1.3-6.3,6.3-6.8,12.1
	c0,0.2,0,0.4,0,0.7c-0.5,0.9-1.2,3.4-3.6,4.1c-3,0.8-0.5-6.2,1.9-11.8c2.4-5.9-0.1-4.4-4.7-5.9c-2.3-0.7-1.4-3.4-4.1-3.4
	c-2.7,0-2.2,1.8-2.2,3.3c0,1.2,1.8,2,1.5,2.7c-5.8,17.6-15.8,24.5-9.1,9.9c7-15.2,2.9-14.3-1.5-13.8c0,0-2.9,1-0.7-1.7
	C175.7,41.9,179.1,40,180.6,40z M255.2,51.8c2.1,0.1,2.3,2.8,1.6,4.2c-0.7,1.4-4.4,3.2-7.5,3.2C250,53.2,253.4,51.7,255.2,51.8z
	 M206.8,51.7c2,0.1,2.1,2.8,1.3,4.2c-0.8,1.4-4.5,3.2-7.5,3.2C201.7,53.2,205.1,51.6,206.8,51.7z"/>
</svg>
