<?xml version="1.0" encoding="UTF-8"?>
<svg id="Layer_2" data-name="Layer 2" xmlns="http://www.w3.org/2000/svg" viewBox="0 0 1663.22 331.6">
  <g id="Layer_1-2" data-name="Layer 1">
    <path d="M1662.63,184.14c-3.77-3.11-3.34.69-4.97,2.06-3.84,3.24-40.33,8.45-48.2,9.78-112.46,19.03-260.99,40.76-373.6,28.1-29.42-3.31-66.18-9.7-87.45-31.43,18.25-1.31,37.63-4.86,51.98-16.95,8.3-6.99,17.51-16.61,9.42-27.39-6.28-8.36-15.7-4.62-23.68-1.81-14.79,5.23-27.15,15.12-41.72,20.7,24.41-27.53,54.02-51.68,72.13-84.14,1.52-4.61,4.2-8.2,1.69-13.02-1.33-2.56-5.57-6.68-7.89-3.14-27.88,41.49-66.34,74.14-101,109.7-33.87,12.35-68.08,27.51-102.34,38.53-11.75,3.78-24.01,7.7-36.5,6.97-1.3-16.43,13.34-31.57,25.66-40.75,9.56-7.12,22.24-14.65,34.31-15.13-1.02,4.84-3.48,8.65-.01,13.22,5.25,6.92,9.6-.35,10.78-5.96,2.69-12.75-6.89-21.22-19.25-20.23-23.16,1.85-43.26,24.72-63.45,35.44-12.22,6.48-28.79,14.12-42,17.93-2.59.75-19.64,5.6-19.99,1.92-.03-5.54,6.64-19.32,5.85-23.63-.24-1.31-3.25-5.73-4.31-6.76-5.5-5.27-11.51-2.81-17.79-.73-15.09,5.01-30.26,14.98-45.71,19.72,11.54-13.79,28.84-24.06,45.3-31.1,3.64-1.56,21.17-9.15,23.64-5.77-.63,4.74-2.28,13.31-.25,17.68.86,1.83,5.35,5.2,7.32,3.8,1.01-.71,3.89-12.19,3.97-14.09.31-6.47-4.33-13.94-9.68-17.25-17.9-11.07-51.7,10.27-66.2,21.39-15.99,12.27-22.17,17.23-41.4,25.52-20.11,8.67-41.02,15.82-62.63,19.78-1.39-1.41,9.33-15.58,10.96-17.48,25.88-30.16,66.74-68.36,96.95-94.79,4.71-4.12,12.34-5.67,7.03-12.98-3.37-4.65-6.53-3.46-10.51-.48-17.71,13.27-40.57,36.08-56.99,51.86-15.61,15-35.21,33.63-48.42,50.45-3.32,4.23-11.32,15.64-10.99,20.87.32,4.96,7.23,11.1,11.9,12.09,13.73,2.92,40.54-8.72,53.71-14.35,5.87-2.51,15.71-8.62,20.83-10.13,2.44-.73,1.23,4.79,1.92,7.02,1.57,5.04,9.88,8.26,14.81,6.69l60.19-25.72c-.37,6.72-3.06,11.18,0,17.98,1.57,3.5,8.37,9.76,11.95,11.02,17.55,6.14,45.64-12.22,61.51-19-7.67,21.57,5.36,35.8,27.47,33.9,30.11-2.57,69.83-25.69,98.98-34.89.51-.16,1.63-.28,1.47.48-3.01,3.43-9.45,7.8-8.99,12.87.43,4.66,6.67,12.9,12.25,10.36l45.24-30.66c20.4,28.21,55.37,41.38,89.06,45.72,17.54,2.27,34.33,1.71,51.88,2.09,100.41,2.17,207.35-10.71,306.47-27.22,14.25-2.37,67.16-10.13,75.66-18.24,2.19-2.09,5.61-7.58,3.63-10.42ZM1172.2,166.69c12.55-5.98,22.03-8.49,22.81-6.03.78,2.46-10.06,6.61-16.66,9.62-6.59,3.01-43.15,14.08-6.15-3.59ZM521.78,236.08c-.08,1.77-.5,2.11,1.48,1.99,18.52-1.17,38.25-5.26,56.98-6.99,22.67-2.09,89.6-8.14,106.45,5.46,8.57,6.92,10.54,19.72,3.4,28.38-12.91,15.66-56.92,32.85-76.61,39.26-52.14,16.97-112.29,24.88-167.12,26.72-16.77.56-52.81,2-67.74-2.3-12.82-3.7-11.85-21.54-3.29-20.76,3.51.32,1.89,6.24,9,7.08,17.58,2.06,42.91-.32,60.94-1.06,65.95-2.71,133.4-13.22,194.1-39.7,7.8-3.4,37.54-16.86,41.31-22.63.66-1,1.61-.76,0-2-26.22-6.31-54.59-5.33-81.45-3.47s-51.32,6.88-76.97,8.96c-5.57.45-16.92,1.64-21.89.92-8.71-1.26-14.18-10.37-10.82-18.62,2.76-6.78,22.83-15.67,29.56-20.38,3.97-2.78,8.35-6.67,12.14-9.84,45.72-38.22,88.13-80.61,133.43-119.24,4.47-3.81,16.58-14.44,21.76-15.29s8.01,5.51,7.82,9.83c-7.45,3.48-13.53,8.99-19.58,14.45-17.23,15.54-33.72,33.13-50.94,48.93-15.19,13.94-32.89,27.31-47.47,41.42-.78.75-2.64,2-1.01,2.98,36.19-16.94,73.1-32.75,108.45-51.38,18.98-10,69.16-36.64,76.16-56.67,2.4-6.86-2.5-7.81-8.24-10.2-39.94-16.57-144.62,3.63-186.39,18.43-5.26,1.86-10.74,3.87-15.83,6.15-3.16,1.42-15.93,7.52-17.66,9.34-2.08,2.19.51,4.72.02,7.48-5,1.06-9.85-6.11-10.05-10.49-.34-7.36,8.37-13.55,14.04-16.97,40.36-24.32,144.57-39.1,191.39-35.39,13.18,1.04,33.27,5.8,39.37,18.57,15.27,31.96-22.35,54.52-44.56,69.02-64.27,37.28-133.13,66.1-200.17,98.02ZM97.03,264.99l85.46-6.96c11.67-.81,23.33-.66,35.01-.97,27.04-.71,61.91-1.98,88.25,4.61,14.15,3.54,21.87,11.6,14,26.1l-2.74.09c-1.57-8.11-12.78-8.87-19.71-9.76-13.95-1.78-27.84-.57-41.84-.12-61.56,2.01-123.31,5.57-184.82,11.05-5.9-.6-11.58,8.04-15.32,8.76-4.58.88-6.82-4.59-9.67-4.77-1.83-.11-30.93,6.34-33.58,7.38-4.25,1.66-5.85,7.34-10.16-.78-5.74-10.8,2.66-13.1,10.92-16.43,15.25-6.14,31.77-8.44,47.19-13.75C153.79,189.46,243.74,104.38,338.87,25.98c8.88-7.31,20.8-17.67,30.06-23.87,6.05-4.05,9.89-2.26,10.74,5.19.71,6.21-6.61,11.63-10.79,15.71-59.14,57.66-125.48,114.16-187.89,168.65-27.97,24.42-57.51,47.33-83.96,73.32ZM351.88,194.16c-19.3,8.42-38.52,17.93-58.97,23.44-12.08,3.25-24.45,6.62-35.48-1.5-30.82-22.69,19.69-65.58,46.89-61.78,5.84.82,14,8.29,13.55,14.33-.24,3.31-6.34,9.87-8.96,12.04-7.05,5.85-21.34,11.63-29.91,6.89-2.1-1.16-4.09-5.21-7.05-3.96-6.28,6.32-13.18,14.93-11.88,24.36,2.94,4.73,37.47-4.74,43.6-6.58,16-4.8,34.57-12.01,49.56-19.37,17.1-8.39,28.29-22.08,44.7-32.21,5.81-3.58,24.59-14.26,30.43-14.59,5.25-.3,19.5,8.51,16,14.03-8.25,3.71-11.85,12.96-17.14,19.83-11.64,15.13-39.37,49.42-58.94,51.91-16.23,2.06-24.22-13.35-16.4-26.84ZM417.83,156.23l-19.3,12.15c-13.91,11.03-30.33,22.44-36.66,39.73,3.02,2.84,26.65-16.38,29.99-19.44,3.21-2.94,28.57-29.71,25.97-32.44ZM303.9,165.22c-9.46.31-18.7,5.47-22.98,13.96,6.63.66,12.68-2.79,17.51-6.95.83-.72,6.59-6.04,5.47-7ZM1286.11,105.59c7.54-.13,13.17,7.41,14.12,14.3,3.05,22.11-23.64,49.56-45.37,50.37-14.49.54-20.11-12.52-18.24-25.25,2.53-17.22,32.55-39.12,49.5-39.42ZM1282.18,117.47c-.7-.63-4.79-.16-6.12.08-11.26,2.04-27.13,18.1-31.49,28.42-11.99,28.37,17.46,19.05,30.67,8.67,9.25-7.26,20.92-23.65,20.1-35.81-.61-8.98-7.6-9.02-14-5.02,2.64,2.27,4.43,4.81,3.97,8.48-2.51-.16-2.68-4.43-3.13-4.83ZM1278.69,142.36c-5.15,3.75-10.6,4.44-11.35-3.09,17.16,2.65,17.38-24.64-1.92-10.4-2.12,1.56-12.11,12.06-12.11,13.88l2.53,3.49c1.94-.76,5.77-8.25,7.48-6.97,1.09,5.51,7.37,11,13.27,9.81,3.67-.75,6.84-4.39,2.1-6.72ZM1269.81,131.48c2.07-1.46,4.47-3.13,5.48-1.01,1,2.12.44,3.58-2.24,4.92s-8.16-.45-3.24-3.91Z"/>
  </g>
</svg>