<?xml version="1.0" encoding="UTF-8"?>
<svg id="Layer_1" xmlns="http://www.w3.org/2000/svg" version="1.1" viewBox="0 0 265 67">
  <!-- Generator: Adobe Illustrator 29.7.1, SVG Export Plug-In . SVG Version: 2.1.1 Build 8)  -->
  <defs>
    <style>
      .st0 {
        fill: #0a0a0a;
      }
    </style>
  </defs>
  <path class="st0" d="M36.2,21.7l-12,29.7h14.4l5,14.4H.1L27.2,1.1h18.8l27,64.7h-19.2l-17.6-44.1ZM234.6,36.5v-.3c.2-.6.4-1.2.7-1.7.8-1.8,1.8-3.1,3.1-4,1.3-.9,2.7-1.3,4.3-1.3s2.6.3,3.9,1c1.2.7,2.3,1.7,3.1,3.1.5.8.8,1.8,1,2.9v.3c0,0-16,0-16,0ZM263,30.3c-.6-1.4-1.4-2.7-2.2-3.9-.8-1.2-1.8-2.3-2.9-3.3-2.1-2-4.5-3.5-7.2-4.5-2.7-1-5.5-1.5-8.3-1.5-4.2,0-8.2,1-11.7,3-3.5,2-6.4,4.8-8.6,8.5-2.1,3.6-3.2,8-3.2,13s.7,7.5,2.1,10.6c1.4,3.1,3.4,5.7,5.8,7.8,2.5,2.1,5.4,3.7,8.6,4.8,3.2,1.1,6.8,1.7,10.6,1.7s5.5-.3,8.1-.9c2.6-.6,5.1-1.5,7.4-2.7v-12.7c-2.4,1.1-4.7,2-6.9,2.6-2.3.7-4.7,1-7.2,1s-5-.4-7-1.3c-2-.9-3.6-2.3-4.8-4.1-.4-.5-.7-1.2-.9-1.9v-.4c-.1,0,29.6,0,29.6,0,0-.8.1-1.7.2-2.7,0-1,.1-2.1.1-3.1,0-3.7-.6-7.1-1.9-9.9M198.3,47.9c-.5.8-1.1,1.6-1.7,2.2-.6.6-1.4,1.2-2.2,1.6-1.6.9-3.3,1.3-5.1,1.3s-2.1-.1-3.1-.4h-.2v-21.4h.2c1.1-.3,2.3-.4,3.6-.4s3.4.4,4.9,1.1c1.5.8,2.7,2,3.7,3.6.9,1.6,1.4,3.6,1.4,6.1s-.5,4.7-1.5,6.4M213.6,30.6c-1.3-3-3.1-5.6-5.4-7.5s-4.8-3.5-7.5-4.4c-2.7-1-5.5-1.4-8.3-1.4s-4.2.2-6,.7h-.3c0,0,0-17.5,0-17.5h-16.1v62.3c2.9,1.3,5.9,2.3,9,2.9,3.1.6,6.6,1,10.3,1s6.6-.5,9.7-1.6c3.2-1.1,6-2.7,8.5-4.8,2.5-2.1,4.5-4.8,5.9-7.9,1.4-3.1,2.2-6.8,2.2-11s-.7-7.7-2-10.7M149.5,48c-.4.8-.9,1.6-1.4,2.2-.5.6-1.1,1.1-1.7,1.5-1.3.8-2.7,1.2-4.2,1.2s-3-.4-4.2-1.2c-1.3-.8-2.3-2-3.1-3.7-.8-1.6-1.2-3.7-1.2-6.3s.4-4.7,1.2-6.3c.8-1.6,1.8-2.9,3.1-3.7,1.3-.8,2.7-1.2,4.2-1.2s3,.4,4.2,1.2c1.3.8,2.3,2,3.1,3.7.8,1.6,1.2,3.7,1.2,6.3s-.4,4.6-1.2,6.3M163.1,28.2c-2.2-3.7-5.2-6.5-8.8-8.4-1.8-.9-3.8-1.7-5.8-2.1-2-.5-4.2-.7-6.4-.7-4.4,0-8.5,1-12.2,2.9-3.7,1.9-6.7,4.7-8.9,8.4-2.2,3.7-3.4,8.2-3.4,13.6s1.1,9.9,3.4,13.6c2.2,3.7,5.2,6.5,8.9,8.4,3.7,1.9,7.8,2.9,12.2,2.9s8.4-1,12.1-2.9c3.7-1.9,6.7-4.8,8.9-8.4,2.2-3.7,3.3-8.2,3.3-13.6s-1.1-9.9-3.3-13.6M98.2,52.5h-.2c-1.1.3-2.3.4-3.5.4-1.7,0-3.4-.4-4.9-1.2-1.5-.8-2.8-2-3.7-3.6-.9-1.6-1.4-3.7-1.4-6.2s.4-4.7,1.3-6.4c.9-1.7,2.1-2.9,3.7-3.7,1.5-.8,3.3-1.1,5.2-1.1s2.2.1,3.2.4h.2c0,0,0,21.4,0,21.4ZM98.2.4v17.2h-.3c-1.5-.4-3.1-.5-4.7-.5-3.1,0-6.1.5-9,1.6-2.9,1-5.6,2.6-7.9,4.7-2.3,2.1-4.2,4.7-5.6,7.8-1.4,3.1-2.1,6.7-2.1,10.7s.8,8,2.3,11.2c1.5,3.1,3.6,5.7,6,7.7,2.5,2,5.3,3.5,8.4,4.4,3.1.9,6.3,1.4,9.4,1.4s7.3-.3,10.5-1c3.1-.7,6.1-1.7,9.1-3V.4h-16.1Z"/>
</svg>