<?xml version="1.0" encoding="UTF-8"?>
<svg id="Layer_2" data-name="Layer 2" xmlns="http://www.w3.org/2000/svg" viewBox="0 0 598.27 119.28">
  <defs>
    <style>
      .cls-1 {
        fill: #f9f9f9;
      }
    </style>
  </defs>
  <g id="Layer_1-2" data-name="Layer 1">
    <g id="uuid-3a0523fc-c5fa-414b-b914-27a63901cb7b" data-name="Layer 1-2">
      <path class="cls-1" d="M598.06,66.24c-1.36-1.12-1.2.25-1.79.74-1.38,1.17-14.51,3.04-17.34,3.52-40.45,6.85-93.88,14.66-134.39,10.11-10.58-1.19-23.81-3.49-31.46-11.31,6.56-.47,13.54-1.75,18.7-6.1,2.99-2.51,6.3-5.97,3.39-9.85-2.26-3.01-5.65-1.66-8.52-.65-5.32,1.88-9.77,5.44-15.01,7.45,8.78-9.9,19.43-18.59,25.95-30.27.55-1.66,1.51-2.95.61-4.68-.48-.92-2-2.4-2.84-1.13-10.03,14.92-23.86,26.67-36.33,39.46-12.18,4.44-24.49,9.9-36.81,13.86-4.23,1.36-8.64,2.77-13.13,2.51-.47-5.91,4.8-11.36,9.23-14.66,3.44-2.56,8-5.27,12.34-5.44-.37,1.74-1.25,3.11,0,4.76,1.89,2.49,3.45-.13,3.88-2.14.97-4.59-2.48-7.63-6.92-7.28-8.33.67-15.56,8.89-22.82,12.75-4.4,2.33-10.36,5.08-15.11,6.45-.93.27-7.06,2.01-7.19.69-.01-1.99,2.39-6.95,2.1-8.5-.09-.47-1.17-2.06-1.55-2.43-1.98-1.9-4.14-1.01-6.4-.26-5.43,1.8-10.88,5.39-16.44,7.09,4.15-4.96,10.37-8.65,16.29-11.19,1.31-.56,7.62-3.29,8.5-2.08-.23,1.71-.82,4.79-.09,6.36.31.66,1.92,1.87,2.63,1.37.36-.26,1.4-4.38,1.43-5.07.11-2.33-1.56-5.01-3.48-6.2-6.44-3.98-18.6,3.69-23.81,7.69-5.75,4.41-7.97,6.2-14.89,9.18-7.23,3.12-14.76,5.69-22.53,7.12-.5-.51,3.36-5.6,3.94-6.29,9.31-10.85,24.01-24.59,34.87-34.1,1.69-1.48,4.44-2.04,2.53-4.67-1.21-1.67-2.35-1.24-3.78-.17-6.37,4.77-14.59,12.98-20.5,18.65-5.62,5.4-12.67,12.1-17.42,18.15-1.19,1.52-4.07,5.63-3.95,7.51.12,1.78,2.6,3.99,4.28,4.35,4.94,1.05,14.58-3.14,19.32-5.16,2.11-.9,5.65-3.1,7.49-3.64.88-.26.44,1.72.69,2.53.56,1.81,3.55,2.97,5.33,2.41l21.65-9.25c-.13,2.42-1.1,4.02,0,6.47.56,1.26,3.01,3.51,4.3,3.96,6.31,2.21,16.42-4.4,22.13-6.83-2.76,7.76,1.93,12.88,9.88,12.19,10.83-.92,25.12-9.24,35.6-12.55.18-.06.59-.1.53.17-1.08,1.23-3.4,2.81-3.23,4.63.15,1.68,2.4,4.64,4.41,3.73l16.27-11.03c7.34,10.15,19.92,14.88,32.04,16.45,6.31.82,12.35.62,18.66.75,36.12.78,74.59-3.85,110.24-9.79,5.13-.85,24.16-3.64,27.22-6.56.79-.75,2.02-2.73,1.31-3.75h0ZM421.64,59.96c4.51-2.15,7.92-3.05,8.21-2.17s-3.62,2.38-5.99,3.46c-2.37,1.08-15.52,5.06-2.21-1.29ZM187.68,84.92c-.03.64-.18.76.53.72,6.66-.42,13.76-1.89,20.5-2.51,8.15-.75,32.23-2.93,38.29,1.96,3.08,2.49,3.79,7.09,1.22,10.21-4.64,5.63-20.47,11.82-27.56,14.12-18.76,6.1-40.39,8.95-60.11,9.61-6.03.2-19,.72-24.37-.83-4.61-1.33-4.26-7.75-1.18-7.47,1.26.12.68,2.24,3.24,2.55,6.32.74,15.44-.12,21.92-.38,23.72-.97,47.99-4.76,69.82-14.28,2.81-1.22,13.5-6.06,14.86-8.14.24-.36.58-.27,0-.72-9.43-2.27-19.64-1.92-29.3-1.25s-18.46,2.47-27.69,3.22c-2,.16-6.09.59-7.87.33-3.13-.45-5.1-3.73-3.89-6.7.99-2.44,8.21-5.64,10.63-7.33,1.43-1,3-2.4,4.37-3.54,16.45-13.75,31.7-29,48-42.89,1.61-1.37,5.96-5.19,7.83-5.5s2.88,1.98,2.81,3.54c-2.68,1.25-4.87,3.23-7.04,5.2-6.2,5.59-12.13,11.92-18.32,17.6-5.46,5.01-11.83,9.82-17.08,14.9-.28.27-.95.72-.36,1.07,13.02-6.09,26.29-11.78,39.01-18.48,6.83-3.6,24.88-13.18,27.4-20.38.86-2.47-.9-2.81-2.96-3.67-14.37-5.96-52.02,1.31-67.05,6.63-1.89.67-3.86,1.39-5.69,2.21-1.14.51-5.73,2.71-6.35,3.36-.75.79.18,1.7,0,2.69-1.8.38-3.54-2.2-3.62-3.77-.12-2.65,3.01-4.87,5.05-6.1,14.52-8.75,52-14.06,68.84-12.73,4.74.37,11.97,2.09,14.16,6.68,5.49,11.5-8.04,19.61-16.03,24.83-23.12,13.41-47.89,23.78-72,35.26h0ZM34.9,95.32l30.74-2.5c4.2-.29,8.39-.24,12.59-.35,9.73-.26,22.27-.71,31.74,1.66,5.09,1.27,7.87,4.17,5.04,9.39l-.99.03c-.56-2.92-4.6-3.19-7.09-3.51-5.02-.64-10.01-.21-15.05-.04-22.14.72-44.36,2-66.48,3.97-2.12-.22-4.17,2.89-5.51,3.15-1.65.32-2.45-1.65-3.48-1.72-.66-.04-11.13,2.28-12.08,2.65-1.53.6-2.1,2.64-3.65-.28-2.06-3.88.96-4.71,3.93-5.91,5.49-2.21,11.43-3.04,16.97-4.95C55.31,68.15,87.67,37.55,121.89,9.35c3.19-2.63,7.48-6.36,10.81-8.59,2.18-1.46,3.56-.81,3.86,1.87.26,2.23-2.38,4.18-3.88,5.65-21.27,20.74-45.14,41.06-67.59,60.67-10.06,8.78-20.69,17.03-30.2,26.37h0ZM126.57,69.84c-6.94,3.03-13.86,6.45-21.21,8.43-4.35,1.17-8.79,2.38-12.76-.54-11.09-8.16,7.08-23.59,16.87-22.22,2.1.29,5.04,2.98,4.87,5.15-.09,1.19-2.28,3.55-3.22,4.33-2.54,2.1-7.68,4.18-10.76,2.48-.76-.42-1.47-1.87-2.54-1.42-2.26,2.27-4.74,5.37-4.27,8.76,1.06,1.7,13.48-1.71,15.68-2.37,5.76-1.73,12.44-4.32,17.83-6.97,6.15-3.02,10.18-7.94,16.08-11.59,2.09-1.29,8.85-5.13,10.95-5.25,1.89-.11,7.01,3.06,5.76,5.05-2.97,1.33-4.26,4.66-6.17,7.13-4.19,5.44-14.16,17.78-21.2,18.67-5.84.74-8.71-4.8-5.9-9.65h0ZM150.29,56.2l-6.94,4.37c-5,3.97-10.91,8.07-13.19,14.29,1.09,1.02,9.59-5.89,10.79-6.99,1.15-1.06,10.28-10.69,9.34-11.67h0ZM109.31,59.43c-3.4.11-6.73,1.97-8.27,5.02,2.38.24,4.56-1,6.3-2.5.3-.26,2.37-2.17,1.97-2.52h0ZM462.62,37.98c2.71-.05,4.74,2.67,5.08,5.14,1.1,7.95-8.5,17.83-16.32,18.12-5.21.19-7.23-4.5-6.56-9.08.91-6.19,11.71-14.07,17.81-14.18h0ZM461.21,42.26c-.25-.23-1.72-.06-2.2.03-4.05.73-9.76,6.51-11.33,10.22-4.31,10.2,6.28,6.85,11.03,3.12,3.33-2.61,7.53-8.51,7.23-12.88-.22-3.23-2.73-3.24-5.04-1.81.95.82,1.59,1.73,1.43,3.05-.9-.06-.96-1.59-1.13-1.74h0ZM459.95,51.21c-1.85,1.35-3.81,1.6-4.08-1.11,6.17.95,6.25-8.86-.69-3.74-.76.56-4.36,4.34-4.36,4.99l.91,1.26c.7-.27,2.08-2.97,2.69-2.51.39,1.98,2.65,3.96,4.77,3.53,1.32-.27,2.46-1.58.76-2.42h0ZM456.76,47.3c.74-.53,1.61-1.13,1.97-.36.36.76.16,1.29-.81,1.77s-2.94-.16-1.17-1.41Z"/>
    </g>
  </g>
</svg>