<?xml version="1.0" encoding="UTF-8"?>
<svg id="Layer_1" xmlns="http://www.w3.org/2000/svg" version="1.1" viewBox="0 0 177 36">
  <!-- Generator: Adobe Illustrator 29.7.1, SVG Export Plug-In . SVG Version: 2.1.1 Build 8)  -->
  <defs>
    <style>
      .st0 {
        fill: #0a0a0a;
      }
    </style>
  </defs>
  <path class="st0" d="M1.2,24.6h.5v-2h1.7c0,.1,0,0,0,0,0-.4,0-.7,0-1.1v-11.2l-1.6.2v-1.5h-.5v1.5l-1.2.2v11.7h0c0,.1,1.2.2,1.2.2v2h0Z"/>
  <path class="st0" d="M12.9,22.6h.7v-2.6h2v-10.6l-2,.2v-1.7h-.7v1.8l-1.9.2v10h1.9v2.7Z"/>
  <path class="st0" d="M6.7,23.9h.6v-2.2h1.7c0,.1,0-6.3,0-6.3h-1.7c0,.1,0-1.4,0-1.4h-.6v1.5h-1.6v6.1h1.6c0,.1,0,2.3,0,2.3Z"/>
  <path class="st0" d="M16.9,27.6h0c-1.7,2.3-4.2,3.3-6.7,2.9-2.3-.4-4.4-1.9-5.7-4.3h0l-3.9-.4h0c1.5,5,5.1,8.6,9.5,9.6.8.2,1.6.3,2.4.3,4.4,0,8.4-2.7,10.4-7.3h0c0-.1-6-.8-6-.8h0Z"/>
  <path class="st0" d="M21.7,2.6V0l-.8.2v2.6l-2.3.4v19c0,.4,0,.9-.1,1.3h0c0,.1,2.3.2,2.3.2v2.6h.8c0,.1,0-2.5,0-2.5h2.4c0,.1,0,0,0,0,0-.5.1-1,.1-1.4V2.1l-2.4.5Z"/>
  <path class="st0" d="M44,27.2c-1.1,0-2.1-.1-2.8-.3-.7-.2-1.3-.5-1.8-.9s-.8-1-1-1.6c-.2-.7-.3-1.6-.3-2.6v-9.1q0-.1,0-.1h2.5q0,0,0,.1v8.8c0,.6,0,1.1.2,1.6,0,.5.3.8.6,1.1.3.3.7.5,1.1.6.4.1.9.2,1.6.2h6.3c.6,0,1.1-.1,1.6-.2s.8-.3,1.1-.6c.3-.3.5-.7.6-1.1s0-.9,0-1.6v-8.8q0-.1,0-.1h2.5q0,0,0,.1v9.1c0,1,0,1.9-.3,2.6s-.5,1.2-1,1.6-1.1.7-1.8.9c-.8.2-1.7.3-2.8.3,0,0-6.8,0-6.8,0Z"/>
  <path class="st0" d="M66.7,27.2c-1.1,0-2.1-.1-2.8-.3-.7-.2-1.3-.5-1.8-.9s-.8-1-1-1.6c-.2-.7-.3-1.6-.3-2.6v-9.1q0-.1,0-.1h2.5q0,0,0,.1v8.8c0,.6,0,1.1.2,1.6,0,.5.3.8.6,1.1.3.3.7.5,1.1.6s.9.2,1.6.2h9.2q0,0,0,.1v2.2q0,.1,0,.1h-9.5v-.2Z"/>
  <path class="st0" d="M110.4,27.2h-.3c0-.1-3.7-4.9-3.7-4.9h-7.9v4.8q0,.1,0,.1h-2.5q0,0,0-.1v-14.3c0-.2,0-.3.3-.3h12.2c1.6,0,2.8.3,3.5,1s1,1.7,1,3.1v1.3c0,1.2-.2,2.1-.7,2.8-.5.6-1.3,1.1-2.3,1.3h-.6c0,.1,4.3,5.2,4.3,5.2h-3.1ZM99.2,14.8c-.4,0-.7.3-.7.6v5h9.1c.9,0,1.5-.2,1.9-.6s.6-1,.6-1.7v-.9c0-.8-.2-1.3-.6-1.7s-1-.6-1.9-.6h-8.4Z"/>
  <path class="st0" d="M133.8,27.2c-.1,0-.2,0-.2-.1l-1.6-2.9-5.1-9c0-.2-.3-.4-.6-.4h0c-.2,0-.5.1-.6.3l-3.6,6.5-1.4,2.6-1.6,2.9s0,.1-.2.1h-2.9l7.4-13.2c.3-.6.7-1,1-1.2s.7-.3,1.1-.3h1.3c.5,0,.9.1,1.3.3.3.2.7.6,1,1.2l7.5,13.2h-2.7Z"/>
  <path class="st0" d="M139.8,27.2c-.2,0-.3-.1-.3-.3v-14.1c0-.2.1-.3.3-.3h10.7c1.2,0,2.2.1,3.1.4.8.2,1.5.6,2,1,.5.5.9,1.1,1.1,1.8.3.7.4,1.6.4,2.7v3c0,1-.1,1.9-.4,2.7-.2.7-.6,1.3-1.1,1.8s-1.2.8-2,1-1.9.3-3.1.3h-10.7ZM142.9,14.8c-.4,0-.7.3-.7.7v8.7c0,.4.3.7.7.7h7.5c.7,0,1.3-.1,1.8-.2s.9-.4,1.3-.7c.3-.3.6-.7.7-1.2.1-.5.2-1.1.2-1.7v-2.4c0-.7-.1-1.3-.2-1.7-.1-.5-.4-.9-.7-1.2s-.8-.5-1.3-.7c-.5-.1-1.1-.2-1.8-.2h-7.5Z"/>
  <path class="st0" d="M166.9,27.2c-1.1,0-2.1-.1-2.8-.3-.7-.2-1.3-.5-1.8-.9s-.8-1-1-1.6c-.2-.7-.3-1.6-.3-2.6v-2.9s0-.1.1-.1h15.8q.1,0,.1.1v1.7c0,.1-.1.1-.1.1h-13.2v.8c0,.6.1,1.1.1,1.5.1.5.3.8.6,1.1.3.3.7.5,1.1.6.4.1.9.2,1.6.2h9.9q.1,0,.1.1v2.1q0,.1-.1.1s-10.1,0-10.1,0Z"/>
  <path class="st0" d="M161.5,14.8h0s0-.1,0,0c.1-.5.4-.8.7-1.1.5-.4,1.1-.7,1.8-.9.8-.2,1.7-.3,2.8-.3h10q.1,0,.1.1v2.1q0,.1-.1.1h-15.3Z"/>
  <path class="st0" d="M67,14.9q0,0,0-.1v-2.2q0-.1,0-.1h25.4q0,0,0,.1v2.2q0,.1,0,.1h-25.4Z"/>
  <path class="st0" d="M82.3,27.2q0,0,0-.1v-9c0-.2,0-.3.3-.3h2.1c.2,0,.3.1.3.3v9c0,.1,0,.1,0,.1h-2.5Z"/>
</svg>