<?xml version="1.0" encoding="UTF-8"?>
<svg id="Layer_1" xmlns="http://www.w3.org/2000/svg" version="1.1" viewBox="0 0 319.1 159.3">
  <!-- Generator: Adobe Illustrator 29.7.1, SVG Export Plug-In . SVG Version: 2.1.1 Build 8)  -->
  <path d="M65.8,37V10.5c0-1.7,6.9-6.2,9.5-6.5,4.1-.5,19.3-.7,23,0s4.6,4.4,7.2,5.9c1.8.3,4.8-5.2,8.9-5.9s22.2-.6,24.7.1,6.2,5.4,6.5,6.5c1.2,4-1,10.5.7,14.3s11.9,12.1,12.8,11.9c3.3-2.7,11.5-9.4,13.1-12.9,1.6-3.6-.4-9.5.7-13.3s5.4-6.2,6.5-6.5c2.3-.7,24.4-.5,26.3.3s6.5,6.3,6.8,7.2c.5,1.8-.3,11.3.7,11.3l20.2-18.8,64.8-.2c1.6.3,19.8,18,20.3,19.7s.6,18.6,0,20.6-5.8,6.7-6.3,6.7h-33.5v-7h-26v27h26l.4-6.1c.7-1,2-.9,3-1,4.8-.6,24.7-.8,29,0,10.3,2,7.7,20.4,7,28l-19.2,18.8h-66.6l-19.7-19.3v-39.5c-1.7-.4-2,.7-3,1.5-10.2,7.8-19.9,21.5-29.9,30.1-2.4,4.7-1,14.5-.5,19.9,0,.6-5.3,6.1-6,6.5-2.7,1.6-25.3,1.6-28.1,0-10.4-6-4.8-17.4-7-27-10-8.3-19.4-21.8-29.5-29.5-1-.8-1.3-1.9-3-1.5v52.5c0,.4-5,5.3-5.4,5.6-4.8,2.7-21.5,0-27.8.7-3.7-1.1-24.8-25.8-30.7-30.3s-1.3-1.9-3-1.5v25.5c0,.5-6,6.2-7.5,6.5-2.7.5-23.6.3-25.5-.5s-5.5-5.3-5.8-6.2V10.7c.2-.8,4.5-5.3,5.2-5.8,4.7-2.7,20.6-.1,26.9-.7l33.7,32.8Z"/>
  <path d="M193.8,133.5c.6-1.9,3.2-1.9,4.9-.7,2.9,2,1.5-.2,4.6-.8s5.2,1.7,7.1,1.8,5.4-4.1,9.9-.9,2.4,3.3,2.4,3.6v14.5h-5c-1.1-1.1,2.9-19.2-5-14.5s-1.7,11.1-2,14.5h-5s-.5-14-.5-14h-5.5v14h-6v-17.5Z"/>
  <path d="M161.8,132c2.8,0,4.7-1,5.5,2,3.2-5,9.1,0,10.8-.2s2.2-1.5,3.4-1.6c2.6-.4,8.3-.1,8.3,3.3v15.5h-5c-.8-3.2,2.1-14.6-2.5-15.1s-2.6,11.2-3.5,15.1h-5c2.3-19.9-9.4-20.3-7,0h-5v-19Z"/>
  <path d="M24.8,134c-6.3,2-6.3-3.6-10.5-4.1-15.3-1.7-5.3,30.4,5.1,11h5.4c-4.1,18.6-27.7,11.9-23.8-7.2,2.5-12,21.3-12,23.8.3Z"/>
  <path d="M135.8,134c-6.2,1.4-5.2-4.5-11.5-4.1-10.7.7-6,22.5,3.9,16,3.4-2.2.9-6.7,8.6-4.9-4.6,18.3-27.7,11.8-23.8-7.3,2.5-12.1,22.2-12.2,22.8.3Z"/>
  <path d="M286.8,125v26c-6.2-1.8-14.1,3.8-17.8-3.7-4.5-9.3,3-20.2,12.8-13.3v-9s5,0,5,0ZM275.5,136.1c-4.3,1.4-3.3,11.9,2.4,11.4,4.6-1,5.6-8.3,1.9-11.1-1.3-.6-3-.8-4.3-.4Z"/>
  <path d="M46.8,125h5s0,9,0,9c18.3-10.6,17.5,27.1-.5,15l-1.1,2h-3.4v-26ZM58.7,146.9c5.7-14-10.8-15.1-6-.4l6,.4Z"/>
  <path d="M243.8,151c-5.8-1.9-18.2,4.8-18.1-5.5,0-8.2,13.9-2.3,11.6-9.5l-10.5,2c-1.1-8.5,17-7.4,17-1.5v14.5ZM237.8,142c-7,.9-10.8,7.1-.9,5.6l.9-5.6Z"/>
  <path d="M246.8,133.5c.6-1.9,3.2-1.9,4.9-.7,2.8,1.9,1.5-.2,4.6-.8s8.5,1.1,8.5,3.5v15.5h-5c-1.3-1.3,3.4-19.6-5.6-14.1-2.8,2.2-.9,10.5-1.4,14.1h-6v-17.5Z"/>
  <path d="M85.8,143h-13c0,9.7,10.5-.1,13,2-1.5,8-14.3,8.6-17.2,1.7-6.8-16.1,19-21.9,17.3-3.7ZM80.8,140c.3-2-1.8-3.9-3.5-4l-4.4,2.5,8,1.5Z"/>
  <path d="M34.8,144l4.5-11,5.5-1c-4.1,7.1-5.6,30.2-17,24.4v-3.3c0,0,5-1.6,5-1.6l-6.9-19.4,5.5,1,3.5,11Z"/>
  <path d="M145.5,132.2c16.3-3.7,16.6,19.9,2.9,19.4s-12.7-17.2-2.9-19.4ZM147.5,136.1c-6.9,2-2.5,16.6,5.2,9.2.9-4,.3-10.8-5.2-9.2Z"/>
  <path d="M88.8,133.5l5-1.5.5,3c1.8-2.3,3.5-3.5,6.5-3v4.4c-8.3,1-7.1,7.8-7,14.6h-5v-17.5Z"/>
</svg>